<mxfile host="app.diagrams.net" modified="2023-11-24T11:12:54.367Z" agent="Mozilla/5.0 (Windows NT 10.0; Win64; x64) AppleWebKit/537.36 (KHTML, like Gecko) Chrome/119.0.0.0 Safari/537.36" etag="FcsNw0l47cOL88lntkp1" version="22.1.3" type="device">
  <diagram name="Side-1" id="GuKJpiVkrJ8dO57iZTPQ">
    <mxGraphModel dx="1695" dy="452" grid="1" gridSize="10" guides="1" tooltips="1" connect="1" arrows="1" fold="1" page="1" pageScale="1" pageWidth="827" pageHeight="1169" math="0" shadow="0">
      <root>
        <mxCell id="0" />
        <mxCell id="1" parent="0" />
        <mxCell id="spJXYD7yS6-pVbVan2_o-107" value="" style="rounded=1;whiteSpace=wrap;html=1;" parent="1" vertex="1">
          <mxGeometry x="100" y="840" width="160" height="180" as="geometry" />
        </mxCell>
        <mxCell id="spJXYD7yS6-pVbVan2_o-1" value="&amp;lt;Some image&amp;gt;" style="rounded=0;whiteSpace=wrap;html=1;" parent="1" vertex="1">
          <mxGeometry x="-80" y="130" width="160" height="270" as="geometry" />
        </mxCell>
        <mxCell id="spJXYD7yS6-pVbVan2_o-2" value="&lt;font style=&quot;font-size: 24px;&quot;&gt;Splash&lt;/font&gt;" style="text;html=1;strokeColor=none;fillColor=none;align=center;verticalAlign=middle;whiteSpace=wrap;rounded=0;" parent="1" vertex="1">
          <mxGeometry x="-45" y="90" width="90" height="30" as="geometry" />
        </mxCell>
        <mxCell id="spJXYD7yS6-pVbVan2_o-3" value="" style="rounded=0;whiteSpace=wrap;html=1;" parent="1" vertex="1">
          <mxGeometry x="100" y="130" width="160" height="270" as="geometry" />
        </mxCell>
        <mxCell id="spJXYD7yS6-pVbVan2_o-4" value="&lt;font style=&quot;font-size: 24px;&quot;&gt;Login&lt;/font&gt;" style="text;html=1;strokeColor=none;fillColor=none;align=center;verticalAlign=middle;whiteSpace=wrap;rounded=0;" parent="1" vertex="1">
          <mxGeometry x="135" y="90" width="90" height="30" as="geometry" />
        </mxCell>
        <mxCell id="spJXYD7yS6-pVbVan2_o-5" value="" style="rounded=0;whiteSpace=wrap;html=1;" parent="1" vertex="1">
          <mxGeometry x="280" y="130" width="160" height="270" as="geometry" />
        </mxCell>
        <mxCell id="spJXYD7yS6-pVbVan2_o-6" value="&lt;font style=&quot;font-size: 24px;&quot;&gt;Registration&lt;/font&gt;" style="text;html=1;strokeColor=none;fillColor=none;align=center;verticalAlign=middle;whiteSpace=wrap;rounded=0;" parent="1" vertex="1">
          <mxGeometry x="287.5" y="90" width="145" height="30" as="geometry" />
        </mxCell>
        <mxCell id="spJXYD7yS6-pVbVan2_o-7" value="" style="rounded=0;whiteSpace=wrap;html=1;" parent="1" vertex="1">
          <mxGeometry x="460" y="130" width="160" height="270" as="geometry" />
        </mxCell>
        <mxCell id="spJXYD7yS6-pVbVan2_o-8" value="&lt;font style=&quot;font-size: 24px;&quot;&gt;Home&lt;/font&gt;" style="text;html=1;strokeColor=none;fillColor=none;align=center;verticalAlign=middle;whiteSpace=wrap;rounded=0;" parent="1" vertex="1">
          <mxGeometry x="495" y="90" width="90" height="30" as="geometry" />
        </mxCell>
        <mxCell id="spJXYD7yS6-pVbVan2_o-9" value="" style="rounded=0;whiteSpace=wrap;html=1;" parent="1" vertex="1">
          <mxGeometry x="640" y="130" width="160" height="270" as="geometry" />
        </mxCell>
        <mxCell id="spJXYD7yS6-pVbVan2_o-10" value="&lt;font style=&quot;font-size: 24px;&quot;&gt;Notifications&lt;/font&gt;" style="text;html=1;strokeColor=none;fillColor=none;align=center;verticalAlign=middle;whiteSpace=wrap;rounded=0;" parent="1" vertex="1">
          <mxGeometry x="653.75" y="90" width="132.5" height="30" as="geometry" />
        </mxCell>
        <mxCell id="spJXYD7yS6-pVbVan2_o-11" value="" style="rounded=0;whiteSpace=wrap;html=1;" parent="1" vertex="1">
          <mxGeometry x="820" y="130" width="160" height="270" as="geometry" />
        </mxCell>
        <mxCell id="spJXYD7yS6-pVbVan2_o-12" value="&lt;font style=&quot;font-size: 24px;&quot;&gt;Create Group&lt;/font&gt;" style="text;html=1;strokeColor=none;fillColor=none;align=center;verticalAlign=middle;whiteSpace=wrap;rounded=0;" parent="1" vertex="1">
          <mxGeometry x="820" y="90" width="165" height="30" as="geometry" />
        </mxCell>
        <mxCell id="spJXYD7yS6-pVbVan2_o-13" value="" style="rounded=0;whiteSpace=wrap;html=1;" parent="1" vertex="1">
          <mxGeometry x="-80" y="470" width="160" height="270" as="geometry" />
        </mxCell>
        <mxCell id="spJXYD7yS6-pVbVan2_o-14" value="&lt;font style=&quot;font-size: 24px;&quot;&gt;Group&lt;/font&gt;" style="text;html=1;strokeColor=none;fillColor=none;align=center;verticalAlign=middle;whiteSpace=wrap;rounded=0;" parent="1" vertex="1">
          <mxGeometry x="-45" y="430" width="90" height="30" as="geometry" />
        </mxCell>
        <mxCell id="spJXYD7yS6-pVbVan2_o-15" value="" style="rounded=0;whiteSpace=wrap;html=1;" parent="1" vertex="1">
          <mxGeometry x="100" y="470" width="160" height="270" as="geometry" />
        </mxCell>
        <mxCell id="spJXYD7yS6-pVbVan2_o-16" value="&lt;font style=&quot;font-size: 24px;&quot;&gt;Profile&lt;/font&gt;" style="text;html=1;strokeColor=none;fillColor=none;align=center;verticalAlign=middle;whiteSpace=wrap;rounded=0;" parent="1" vertex="1">
          <mxGeometry x="135" y="430" width="90" height="30" as="geometry" />
        </mxCell>
        <mxCell id="spJXYD7yS6-pVbVan2_o-17" value="" style="rounded=0;whiteSpace=wrap;html=1;" parent="1" vertex="1">
          <mxGeometry x="280" y="470" width="160" height="270" as="geometry" />
        </mxCell>
        <mxCell id="spJXYD7yS6-pVbVan2_o-18" value="&lt;font style=&quot;font-size: 24px;&quot;&gt;Invoices&lt;/font&gt;" style="text;html=1;strokeColor=none;fillColor=none;align=center;verticalAlign=middle;whiteSpace=wrap;rounded=0;" parent="1" vertex="1">
          <mxGeometry x="315" y="430" width="90" height="30" as="geometry" />
        </mxCell>
        <mxCell id="spJXYD7yS6-pVbVan2_o-19" value="" style="rounded=0;whiteSpace=wrap;html=1;" parent="1" vertex="1">
          <mxGeometry x="460" y="470" width="160" height="270" as="geometry" />
        </mxCell>
        <mxCell id="spJXYD7yS6-pVbVan2_o-20" value="&lt;font style=&quot;font-size: 24px;&quot;&gt;Add Expense&lt;/font&gt;" style="text;html=1;strokeColor=none;fillColor=none;align=center;verticalAlign=middle;whiteSpace=wrap;rounded=0;" parent="1" vertex="1">
          <mxGeometry x="467.5" y="430" width="145" height="30" as="geometry" />
        </mxCell>
        <mxCell id="spJXYD7yS6-pVbVan2_o-21" value="" style="rounded=0;whiteSpace=wrap;html=1;" parent="1" vertex="1">
          <mxGeometry x="640" y="470" width="160" height="270" as="geometry" />
        </mxCell>
        <mxCell id="spJXYD7yS6-pVbVan2_o-22" value="&lt;font style=&quot;font-size: 20px;&quot;&gt;Edit (Admin only)&lt;/font&gt;" style="text;html=1;strokeColor=none;fillColor=none;align=center;verticalAlign=middle;whiteSpace=wrap;rounded=0;" parent="1" vertex="1">
          <mxGeometry x="661.25" y="430" width="125" height="30" as="geometry" />
        </mxCell>
        <mxCell id="spJXYD7yS6-pVbVan2_o-23" value="" style="rounded=0;whiteSpace=wrap;html=1;" parent="1" vertex="1">
          <mxGeometry x="820" y="470" width="160" height="270" as="geometry" />
        </mxCell>
        <mxCell id="spJXYD7yS6-pVbVan2_o-24" value="&lt;font style=&quot;font-size: 24px;&quot;&gt;Group Info&lt;/font&gt;" style="text;html=1;strokeColor=none;fillColor=none;align=center;verticalAlign=middle;whiteSpace=wrap;rounded=0;" parent="1" vertex="1">
          <mxGeometry x="840" y="430" width="125" height="30" as="geometry" />
        </mxCell>
        <mxCell id="spJXYD7yS6-pVbVan2_o-25" value="" style="rounded=0;whiteSpace=wrap;html=1;" parent="1" vertex="1">
          <mxGeometry x="-80" y="810" width="160" height="270" as="geometry" />
        </mxCell>
        <mxCell id="spJXYD7yS6-pVbVan2_o-26" value="&lt;font style=&quot;font-size: 24px;&quot;&gt;Attachment&lt;/font&gt;" style="text;html=1;strokeColor=none;fillColor=none;align=center;verticalAlign=middle;whiteSpace=wrap;rounded=0;" parent="1" vertex="1">
          <mxGeometry x="-62.5" y="770" width="125" height="30" as="geometry" />
        </mxCell>
        <mxCell id="spJXYD7yS6-pVbVan2_o-30" value="&lt;font style=&quot;font-size: 24px;&quot;&gt;Invite&lt;/font&gt;" style="text;html=1;strokeColor=none;fillColor=none;align=center;verticalAlign=middle;whiteSpace=wrap;rounded=0;" parent="1" vertex="1">
          <mxGeometry x="117.5" y="770" width="125" height="30" as="geometry" />
        </mxCell>
        <mxCell id="spJXYD7yS6-pVbVan2_o-32" value="&lt;i&gt;Username&lt;/i&gt;" style="rounded=1;whiteSpace=wrap;html=1;" parent="1" vertex="1">
          <mxGeometry x="110" y="210" width="140" height="30" as="geometry" />
        </mxCell>
        <mxCell id="spJXYD7yS6-pVbVan2_o-33" value="&lt;i&gt;Password&lt;/i&gt;" style="rounded=1;whiteSpace=wrap;html=1;" parent="1" vertex="1">
          <mxGeometry x="110" y="250" width="140" height="30" as="geometry" />
        </mxCell>
        <mxCell id="spJXYD7yS6-pVbVan2_o-35" value="Register" style="rounded=1;whiteSpace=wrap;html=1;" parent="1" vertex="1">
          <mxGeometry x="130" y="320" width="100" height="30" as="geometry" />
        </mxCell>
        <mxCell id="spJXYD7yS6-pVbVan2_o-36" value="Login" style="rounded=1;whiteSpace=wrap;html=1;" parent="1" vertex="1">
          <mxGeometry x="130" y="350" width="100" height="30" as="geometry" />
        </mxCell>
        <mxCell id="spJXYD7yS6-pVbVan2_o-37" value="" style="endArrow=none;html=1;rounded=0;entryX=0.996;entryY=0.222;entryDx=0;entryDy=0;entryPerimeter=0;" parent="1" target="spJXYD7yS6-pVbVan2_o-3" edge="1">
          <mxGeometry width="50" height="50" relative="1" as="geometry">
            <mxPoint x="100" y="190" as="sourcePoint" />
            <mxPoint x="150" y="140" as="targetPoint" />
          </mxGeometry>
        </mxCell>
        <mxCell id="spJXYD7yS6-pVbVan2_o-39" value="&lt;font style=&quot;font-size: 21px;&quot;&gt;&amp;lt;App Name&amp;gt;&lt;/font&gt;" style="text;html=1;strokeColor=none;fillColor=none;align=center;verticalAlign=middle;whiteSpace=wrap;rounded=0;" parent="1" vertex="1">
          <mxGeometry x="92.5" y="160" width="175" height="20" as="geometry" />
        </mxCell>
        <mxCell id="spJXYD7yS6-pVbVan2_o-41" value="&lt;i&gt;Username&lt;/i&gt;" style="rounded=1;whiteSpace=wrap;html=1;" parent="1" vertex="1">
          <mxGeometry x="290" y="225" width="140" height="20" as="geometry" />
        </mxCell>
        <mxCell id="spJXYD7yS6-pVbVan2_o-42" value="&lt;i&gt;Password&lt;/i&gt;" style="rounded=1;whiteSpace=wrap;html=1;" parent="1" vertex="1">
          <mxGeometry x="290" y="260" width="140" height="20" as="geometry" />
        </mxCell>
        <mxCell id="spJXYD7yS6-pVbVan2_o-43" value="&lt;i&gt;Confirm Password&lt;/i&gt;" style="rounded=1;whiteSpace=wrap;html=1;" parent="1" vertex="1">
          <mxGeometry x="290" y="280" width="140" height="20" as="geometry" />
        </mxCell>
        <mxCell id="spJXYD7yS6-pVbVan2_o-44" value="&lt;i&gt;Full Name&lt;/i&gt;" style="rounded=1;whiteSpace=wrap;html=1;" parent="1" vertex="1">
          <mxGeometry x="290" y="205" width="140" height="20" as="geometry" />
        </mxCell>
        <mxCell id="spJXYD7yS6-pVbVan2_o-45" value="&lt;i&gt;Email&lt;/i&gt;" style="rounded=1;whiteSpace=wrap;html=1;" parent="1" vertex="1">
          <mxGeometry x="290" y="300" width="140" height="20" as="geometry" />
        </mxCell>
        <mxCell id="spJXYD7yS6-pVbVan2_o-46" value="&lt;i&gt;Phone&lt;/i&gt;" style="rounded=1;whiteSpace=wrap;html=1;" parent="1" vertex="1">
          <mxGeometry x="290" y="320" width="140" height="20" as="geometry" />
        </mxCell>
        <mxCell id="spJXYD7yS6-pVbVan2_o-47" value="Confirm" style="rounded=1;whiteSpace=wrap;html=1;" parent="1" vertex="1">
          <mxGeometry x="360" y="360" width="70" height="30" as="geometry" />
        </mxCell>
        <mxCell id="spJXYD7yS6-pVbVan2_o-48" value="&lt;span style=&quot;font-size: 21px;&quot;&gt;Create Account&lt;/span&gt;" style="text;html=1;strokeColor=none;fillColor=none;align=center;verticalAlign=middle;whiteSpace=wrap;rounded=0;" parent="1" vertex="1">
          <mxGeometry x="272.5" y="160" width="175" height="30" as="geometry" />
        </mxCell>
        <mxCell id="spJXYD7yS6-pVbVan2_o-49" value="" style="endArrow=none;html=1;rounded=0;entryX=0.996;entryY=0.222;entryDx=0;entryDy=0;entryPerimeter=0;" parent="1" edge="1">
          <mxGeometry width="50" height="50" relative="1" as="geometry">
            <mxPoint x="280.5" y="190" as="sourcePoint" />
            <mxPoint x="439.5" y="190" as="targetPoint" />
          </mxGeometry>
        </mxCell>
        <mxCell id="spJXYD7yS6-pVbVan2_o-50" value="&lt;font style=&quot;font-size: 18px;&quot;&gt;Groups&lt;/font&gt;" style="text;html=1;strokeColor=none;fillColor=none;align=center;verticalAlign=middle;whiteSpace=wrap;rounded=0;" parent="1" vertex="1">
          <mxGeometry x="447.5" y="210" width="97.5" height="30" as="geometry" />
        </mxCell>
        <mxCell id="spJXYD7yS6-pVbVan2_o-51" value="Group 01" style="rounded=1;whiteSpace=wrap;html=1;" parent="1" vertex="1">
          <mxGeometry x="470" y="240" width="120" height="30" as="geometry" />
        </mxCell>
        <mxCell id="spJXYD7yS6-pVbVan2_o-52" value="Group 01" style="rounded=1;whiteSpace=wrap;html=1;" parent="1" vertex="1">
          <mxGeometry x="470" y="270" width="120" height="30" as="geometry" />
        </mxCell>
        <mxCell id="spJXYD7yS6-pVbVan2_o-53" value="Group 01" style="rounded=1;whiteSpace=wrap;html=1;" parent="1" vertex="1">
          <mxGeometry x="470" y="300" width="120" height="30" as="geometry" />
        </mxCell>
        <mxCell id="spJXYD7yS6-pVbVan2_o-54" value="Group 01" style="rounded=1;whiteSpace=wrap;html=1;" parent="1" vertex="1">
          <mxGeometry x="470" y="330" width="120" height="30" as="geometry" />
        </mxCell>
        <mxCell id="spJXYD7yS6-pVbVan2_o-55" value="Group 01" style="rounded=1;whiteSpace=wrap;html=1;" parent="1" vertex="1">
          <mxGeometry x="470" y="360" width="120" height="30" as="geometry" />
        </mxCell>
        <mxCell id="spJXYD7yS6-pVbVan2_o-57" value="+" style="rounded=1;whiteSpace=wrap;html=1;" parent="1" vertex="1">
          <mxGeometry x="590" y="215" width="20" height="20" as="geometry" />
        </mxCell>
        <mxCell id="spJXYD7yS6-pVbVan2_o-60" value="" style="html=1;verticalLabelPosition=bottom;align=center;labelBackgroundColor=#ffffff;verticalAlign=top;strokeWidth=2;strokeColor=#0080F0;shadow=0;dashed=0;shape=mxgraph.ios7.icons.bell;" parent="1" vertex="1">
          <mxGeometry x="467.5" y="187" width="24" height="23.099999999999998" as="geometry" />
        </mxCell>
        <mxCell id="spJXYD7yS6-pVbVan2_o-61" value="11" style="ellipse;whiteSpace=wrap;html=1;aspect=fixed;fillColor=#f8cecc;strokeColor=#b85450;" parent="1" vertex="1">
          <mxGeometry x="478.5" y="200" width="15" height="15" as="geometry" />
        </mxCell>
        <mxCell id="spJXYD7yS6-pVbVan2_o-62" value="&lt;font style=&quot;font-size: 12px;&quot;&gt;&lt;i&gt;Welcome back, &amp;lt;username&amp;gt;&lt;/i&gt;&lt;/font&gt;" style="text;html=1;strokeColor=none;fillColor=none;align=center;verticalAlign=middle;whiteSpace=wrap;rounded=0;" parent="1" vertex="1">
          <mxGeometry x="493.5" y="150" width="90" height="30" as="geometry" />
        </mxCell>
        <mxCell id="spJXYD7yS6-pVbVan2_o-65" value="&lt;font style=&quot;font-size: 12px;&quot;&gt;&amp;lt;Group Name&amp;gt;&lt;/font&gt;" style="text;html=1;strokeColor=none;fillColor=none;align=center;verticalAlign=middle;whiteSpace=wrap;rounded=0;" parent="1" vertex="1">
          <mxGeometry x="-87.5" y="470" width="175" height="30" as="geometry" />
        </mxCell>
        <mxCell id="spJXYD7yS6-pVbVan2_o-66" value="&lt;font style=&quot;font-size: 17px;&quot;&gt;Activities&lt;/font&gt;" style="text;html=1;strokeColor=none;fillColor=none;align=center;verticalAlign=middle;whiteSpace=wrap;rounded=0;" parent="1" vertex="1">
          <mxGeometry x="-87.5" y="515" width="175" height="30" as="geometry" />
        </mxCell>
        <mxCell id="spJXYD7yS6-pVbVan2_o-67" value="" style="shape=actor;whiteSpace=wrap;html=1;" parent="1" vertex="1">
          <mxGeometry x="590" y="187" width="25" height="24" as="geometry" />
        </mxCell>
        <mxCell id="spJXYD7yS6-pVbVan2_o-72" value="" style="html=1;verticalLabelPosition=bottom;align=center;labelBackgroundColor=#ffffff;verticalAlign=top;strokeWidth=2;strokeColor=#0080F0;shadow=0;dashed=0;shape=mxgraph.ios7.icons.compose;" parent="1" vertex="1">
          <mxGeometry x="-74.1" y="501.7" width="29.099999999999998" height="29.099999999999998" as="geometry" />
        </mxCell>
        <mxCell id="spJXYD7yS6-pVbVan2_o-73" value="" style="endArrow=none;html=1;rounded=0;entryX=0.996;entryY=0.222;entryDx=0;entryDy=0;entryPerimeter=0;" parent="1" edge="1">
          <mxGeometry width="50" height="50" relative="1" as="geometry">
            <mxPoint x="-79" y="537.7" as="sourcePoint" />
            <mxPoint x="80" y="537.7" as="targetPoint" />
          </mxGeometry>
        </mxCell>
        <mxCell id="spJXYD7yS6-pVbVan2_o-74" value="" style="endArrow=none;html=1;rounded=0;" parent="1" edge="1">
          <mxGeometry width="50" height="50" relative="1" as="geometry">
            <mxPoint x="600" y="245" as="sourcePoint" />
            <mxPoint x="600" y="390" as="targetPoint" />
          </mxGeometry>
        </mxCell>
        <mxCell id="spJXYD7yS6-pVbVan2_o-75" value="" style="rounded=1;whiteSpace=wrap;html=1;" parent="1" vertex="1">
          <mxGeometry x="598" y="270" width="5" height="20" as="geometry" />
        </mxCell>
        <mxCell id="spJXYD7yS6-pVbVan2_o-76" value="Activity 1" style="rounded=1;whiteSpace=wrap;html=1;" parent="1" vertex="1">
          <mxGeometry x="-65.5" y="545" width="126.5" height="30" as="geometry" />
        </mxCell>
        <mxCell id="spJXYD7yS6-pVbVan2_o-77" value="Activity 1" style="rounded=1;whiteSpace=wrap;html=1;" parent="1" vertex="1">
          <mxGeometry x="-65.5" y="575" width="126.5" height="30" as="geometry" />
        </mxCell>
        <mxCell id="spJXYD7yS6-pVbVan2_o-78" value="Activity 1" style="rounded=1;whiteSpace=wrap;html=1;" parent="1" vertex="1">
          <mxGeometry x="-65.5" y="605" width="126.5" height="30" as="geometry" />
        </mxCell>
        <mxCell id="spJXYD7yS6-pVbVan2_o-79" value="Activity 1" style="rounded=1;whiteSpace=wrap;html=1;" parent="1" vertex="1">
          <mxGeometry x="-65.5" y="635" width="126.5" height="30" as="geometry" />
        </mxCell>
        <mxCell id="spJXYD7yS6-pVbVan2_o-80" value="Activity 1" style="rounded=1;whiteSpace=wrap;html=1;" parent="1" vertex="1">
          <mxGeometry x="-65.5" y="675" width="126.5" height="30" as="geometry" />
        </mxCell>
        <mxCell id="spJXYD7yS6-pVbVan2_o-81" value="" style="endArrow=none;html=1;rounded=0;" parent="1" edge="1">
          <mxGeometry width="50" height="50" relative="1" as="geometry">
            <mxPoint x="71" y="550" as="sourcePoint" />
            <mxPoint x="71" y="695" as="targetPoint" />
          </mxGeometry>
        </mxCell>
        <mxCell id="spJXYD7yS6-pVbVan2_o-82" value="" style="rounded=1;whiteSpace=wrap;html=1;" parent="1" vertex="1">
          <mxGeometry x="69" y="575" width="5" height="20" as="geometry" />
        </mxCell>
        <mxCell id="spJXYD7yS6-pVbVan2_o-83" value="&lt;font style=&quot;font-size: 18px;&quot;&gt;Notafications&lt;/font&gt;" style="text;html=1;strokeColor=none;fillColor=none;align=center;verticalAlign=middle;whiteSpace=wrap;rounded=0;" parent="1" vertex="1">
          <mxGeometry x="632.5" y="140" width="175" height="30" as="geometry" />
        </mxCell>
        <mxCell id="spJXYD7yS6-pVbVan2_o-84" value="Notafication 1" style="rounded=1;whiteSpace=wrap;html=1;" parent="1" vertex="1">
          <mxGeometry x="654.25" y="180" width="126.5" height="30" as="geometry" />
        </mxCell>
        <mxCell id="spJXYD7yS6-pVbVan2_o-85" value="Notafication 1" style="rounded=1;whiteSpace=wrap;html=1;" parent="1" vertex="1">
          <mxGeometry x="654.25" y="210" width="126.5" height="30" as="geometry" />
        </mxCell>
        <mxCell id="spJXYD7yS6-pVbVan2_o-86" value="Notafication 1" style="rounded=1;whiteSpace=wrap;html=1;" parent="1" vertex="1">
          <mxGeometry x="654.25" y="240" width="126.5" height="30" as="geometry" />
        </mxCell>
        <mxCell id="spJXYD7yS6-pVbVan2_o-87" value="Notafication 1" style="rounded=1;whiteSpace=wrap;html=1;" parent="1" vertex="1">
          <mxGeometry x="654.25" y="270" width="126.5" height="30" as="geometry" />
        </mxCell>
        <mxCell id="spJXYD7yS6-pVbVan2_o-88" value="Notafication 1" style="rounded=1;whiteSpace=wrap;html=1;" parent="1" vertex="1">
          <mxGeometry x="654.25" y="300" width="126.5" height="30" as="geometry" />
        </mxCell>
        <mxCell id="spJXYD7yS6-pVbVan2_o-89" value="" style="endArrow=none;html=1;rounded=0;" parent="1" edge="1">
          <mxGeometry width="50" height="50" relative="1" as="geometry">
            <mxPoint x="790" y="175" as="sourcePoint" />
            <mxPoint x="790" y="360" as="targetPoint" />
          </mxGeometry>
        </mxCell>
        <mxCell id="spJXYD7yS6-pVbVan2_o-90" value="" style="rounded=1;whiteSpace=wrap;html=1;" parent="1" vertex="1">
          <mxGeometry x="788" y="200" width="5" height="20" as="geometry" />
        </mxCell>
        <mxCell id="spJXYD7yS6-pVbVan2_o-91" value="Notafication 1" style="rounded=1;whiteSpace=wrap;html=1;" parent="1" vertex="1">
          <mxGeometry x="653.75" y="330" width="126.5" height="30" as="geometry" />
        </mxCell>
        <mxCell id="spJXYD7yS6-pVbVan2_o-92" value="Back" style="rounded=1;whiteSpace=wrap;html=1;" parent="1" vertex="1">
          <mxGeometry x="695.62" y="370" width="56.25" height="30" as="geometry" />
        </mxCell>
        <mxCell id="spJXYD7yS6-pVbVan2_o-94" value="&lt;font style=&quot;font-size: 18px;&quot;&gt;Create Group&lt;/font&gt;" style="text;html=1;strokeColor=none;fillColor=none;align=center;verticalAlign=middle;whiteSpace=wrap;rounded=0;" parent="1" vertex="1">
          <mxGeometry x="815" y="140" width="175" height="30" as="geometry" />
        </mxCell>
        <mxCell id="spJXYD7yS6-pVbVan2_o-95" value="&lt;i&gt;Group Name&lt;/i&gt;" style="rounded=1;whiteSpace=wrap;html=1;" parent="1" vertex="1">
          <mxGeometry x="832.5" y="185" width="140" height="20" as="geometry" />
        </mxCell>
        <mxCell id="spJXYD7yS6-pVbVan2_o-96" value="&lt;i&gt;Group Description&lt;/i&gt;" style="rounded=1;whiteSpace=wrap;html=1;" parent="1" vertex="1">
          <mxGeometry x="832.5" y="220" width="140" height="20" as="geometry" />
        </mxCell>
        <mxCell id="spJXYD7yS6-pVbVan2_o-97" value="&lt;i&gt;Group Picture&lt;/i&gt;" style="rounded=1;whiteSpace=wrap;html=1;" parent="1" vertex="1">
          <mxGeometry x="832.5" y="255" width="140" height="20" as="geometry" />
        </mxCell>
        <mxCell id="spJXYD7yS6-pVbVan2_o-98" value="Confirm" style="rounded=1;whiteSpace=wrap;html=1;" parent="1" vertex="1">
          <mxGeometry x="900" y="360" width="72.5" height="30" as="geometry" />
        </mxCell>
        <mxCell id="spJXYD7yS6-pVbVan2_o-99" value="&lt;i&gt;Link&lt;/i&gt;" style="rounded=1;whiteSpace=wrap;html=1;" parent="1" vertex="1">
          <mxGeometry x="110" y="890" width="140" height="20" as="geometry" />
        </mxCell>
        <mxCell id="spJXYD7yS6-pVbVan2_o-100" value="Copy" style="rounded=1;whiteSpace=wrap;html=1;" parent="1" vertex="1">
          <mxGeometry x="135" y="910" width="90" height="30" as="geometry" />
        </mxCell>
        <mxCell id="spJXYD7yS6-pVbVan2_o-101" value="" style="shape=image;html=1;verticalAlign=top;verticalLabelPosition=bottom;labelBackgroundColor=#ffffff;imageAspect=0;aspect=fixed;image=https://cdn2.iconfinder.com/data/icons/font-awesome/1792/clone-128.png;imageBackground=#000000;" parent="1" vertex="1">
          <mxGeometry x="201" y="913" width="24" height="24" as="geometry" />
        </mxCell>
        <mxCell id="spJXYD7yS6-pVbVan2_o-102" value="&lt;font style=&quot;font-size: 14px;&quot;&gt;Invite Members&lt;/font&gt;" style="text;html=1;strokeColor=none;fillColor=none;align=center;verticalAlign=middle;whiteSpace=wrap;rounded=0;" parent="1" vertex="1">
          <mxGeometry x="100" y="850" width="125" height="40" as="geometry" />
        </mxCell>
        <mxCell id="spJXYD7yS6-pVbVan2_o-103" value="&lt;i&gt;Username&lt;/i&gt;" style="rounded=1;whiteSpace=wrap;html=1;" parent="1" vertex="1">
          <mxGeometry x="110" y="950" width="140" height="20" as="geometry" />
        </mxCell>
        <mxCell id="spJXYD7yS6-pVbVan2_o-104" value="Invite User" style="rounded=1;whiteSpace=wrap;html=1;" parent="1" vertex="1">
          <mxGeometry x="140" y="970" width="80" height="30" as="geometry" />
        </mxCell>
        <mxCell id="spJXYD7yS6-pVbVan2_o-106" value="X" style="ellipse;whiteSpace=wrap;html=1;aspect=fixed;" parent="1" vertex="1">
          <mxGeometry x="225" y="857.5" width="25" height="25" as="geometry" />
        </mxCell>
        <mxCell id="spJXYD7yS6-pVbVan2_o-112" value="X" style="ellipse;whiteSpace=wrap;html=1;aspect=fixed;" parent="1" vertex="1">
          <mxGeometry x="49" y="475" width="25" height="25" as="geometry" />
        </mxCell>
        <mxCell id="spJXYD7yS6-pVbVan2_o-114" value="Cancel" style="rounded=1;whiteSpace=wrap;html=1;" parent="1" vertex="1">
          <mxGeometry x="290" y="360" width="70" height="30" as="geometry" />
        </mxCell>
        <mxCell id="spJXYD7yS6-pVbVan2_o-115" value="Cancel" style="rounded=1;whiteSpace=wrap;html=1;" parent="1" vertex="1">
          <mxGeometry x="827.5" y="360" width="72.5" height="30" as="geometry" />
        </mxCell>
        <mxCell id="spJXYD7yS6-pVbVan2_o-116" value="Logout" style="rounded=1;whiteSpace=wrap;html=1;" parent="1" vertex="1">
          <mxGeometry x="130" y="700" width="102.5" height="30" as="geometry" />
        </mxCell>
        <mxCell id="spJXYD7yS6-pVbVan2_o-117" value="&lt;font style=&quot;font-size: 16px;&quot;&gt;Username&lt;/font&gt;" style="text;html=1;strokeColor=none;fillColor=none;align=center;verticalAlign=middle;whiteSpace=wrap;rounded=0;" parent="1" vertex="1">
          <mxGeometry x="133.75" y="475" width="90" height="30" as="geometry" />
        </mxCell>
        <mxCell id="spJXYD7yS6-pVbVan2_o-118" value="X" style="ellipse;whiteSpace=wrap;html=1;aspect=fixed;" parent="1" vertex="1">
          <mxGeometry x="227" y="479" width="25" height="25" as="geometry" />
        </mxCell>
        <mxCell id="spJXYD7yS6-pVbVan2_o-119" value="&lt;i&gt;Full Name&lt;/i&gt;" style="rounded=1;whiteSpace=wrap;html=1;" parent="1" vertex="1">
          <mxGeometry x="111.25" y="515" width="140" height="20" as="geometry" />
        </mxCell>
        <mxCell id="spJXYD7yS6-pVbVan2_o-120" value="&lt;i&gt;Email&lt;/i&gt;" style="rounded=1;whiteSpace=wrap;html=1;" parent="1" vertex="1">
          <mxGeometry x="111.25" y="535" width="140" height="20" as="geometry" />
        </mxCell>
        <mxCell id="spJXYD7yS6-pVbVan2_o-121" value="&lt;i&gt;Phone&lt;/i&gt;" style="rounded=1;whiteSpace=wrap;html=1;" parent="1" vertex="1">
          <mxGeometry x="111.25" y="555" width="140" height="20" as="geometry" />
        </mxCell>
        <mxCell id="spJXYD7yS6-pVbVan2_o-123" value="" style="rounded=0;whiteSpace=wrap;html=1;" parent="1" vertex="1">
          <mxGeometry x="-79" y="670" width="160" height="70" as="geometry" />
        </mxCell>
        <mxCell id="spJXYD7yS6-pVbVan2_o-124" value="&lt;font style=&quot;font-size: 12px;&quot;&gt;You owe:&lt;br&gt;394872DKK&lt;br&gt;&lt;/font&gt;" style="text;html=1;strokeColor=none;fillColor=none;align=center;verticalAlign=middle;whiteSpace=wrap;rounded=0;" parent="1" vertex="1">
          <mxGeometry x="-89.75" y="675" width="175" height="30" as="geometry" />
        </mxCell>
        <mxCell id="spJXYD7yS6-pVbVan2_o-125" value="" style="image;sketch=0;aspect=fixed;html=1;points=[];align=center;fontSize=12;image=img/lib/mscae/Info.svg;" parent="1" vertex="1">
          <mxGeometry x="46.5" y="505" width="30" height="30" as="geometry" />
        </mxCell>
        <mxCell id="spJXYD7yS6-pVbVan2_o-126" value="Pay" style="rounded=1;whiteSpace=wrap;html=1;" parent="1" vertex="1">
          <mxGeometry x="-53" y="710" width="53.5" height="25" as="geometry" />
        </mxCell>
        <mxCell id="spJXYD7yS6-pVbVan2_o-127" value="Member 1" style="rounded=1;whiteSpace=wrap;html=1;" parent="1" vertex="1">
          <mxGeometry x="830.62" y="582.5" width="126.5" height="30" as="geometry" />
        </mxCell>
        <mxCell id="spJXYD7yS6-pVbVan2_o-128" value="Member 1" style="rounded=1;whiteSpace=wrap;html=1;" parent="1" vertex="1">
          <mxGeometry x="830.62" y="612.5" width="126.5" height="30" as="geometry" />
        </mxCell>
        <mxCell id="spJXYD7yS6-pVbVan2_o-129" value="Member 1" style="rounded=1;whiteSpace=wrap;html=1;" parent="1" vertex="1">
          <mxGeometry x="830.62" y="642.5" width="126.5" height="30" as="geometry" />
        </mxCell>
        <mxCell id="spJXYD7yS6-pVbVan2_o-130" value="Member 1" style="rounded=1;whiteSpace=wrap;html=1;" parent="1" vertex="1">
          <mxGeometry x="830.62" y="672.5" width="126.5" height="30" as="geometry" />
        </mxCell>
        <mxCell id="spJXYD7yS6-pVbVan2_o-132" value="" style="endArrow=none;html=1;rounded=0;" parent="1" edge="1">
          <mxGeometry width="50" height="50" relative="1" as="geometry">
            <mxPoint x="966.37" y="577.5" as="sourcePoint" />
            <mxPoint x="968.12" y="702.5" as="targetPoint" />
          </mxGeometry>
        </mxCell>
        <mxCell id="spJXYD7yS6-pVbVan2_o-133" value="" style="rounded=1;whiteSpace=wrap;html=1;" parent="1" vertex="1">
          <mxGeometry x="964.37" y="602.5" width="5" height="20" as="geometry" />
        </mxCell>
        <mxCell id="spJXYD7yS6-pVbVan2_o-135" value="&lt;font style=&quot;font-size: 16px;&quot;&gt;Members&lt;/font&gt;" style="text;html=1;strokeColor=none;fillColor=none;align=center;verticalAlign=middle;whiteSpace=wrap;rounded=0;" parent="1" vertex="1">
          <mxGeometry x="855.62" y="547.5" width="90" height="30" as="geometry" />
        </mxCell>
        <mxCell id="spJXYD7yS6-pVbVan2_o-136" value="&lt;font style=&quot;font-size: 12px;&quot;&gt;&amp;lt;Group Name&amp;gt;&lt;/font&gt;" style="text;html=1;strokeColor=none;fillColor=none;align=center;verticalAlign=middle;whiteSpace=wrap;rounded=0;" parent="1" vertex="1">
          <mxGeometry x="812.5" y="470" width="175" height="30" as="geometry" />
        </mxCell>
        <mxCell id="spJXYD7yS6-pVbVan2_o-138" value="X" style="ellipse;whiteSpace=wrap;html=1;aspect=fixed;" parent="1" vertex="1">
          <mxGeometry x="947.5" y="480" width="25" height="25" as="geometry" />
        </mxCell>
        <mxCell id="spJXYD7yS6-pVbVan2_o-139" value="&lt;font style=&quot;font-size: 12px;&quot;&gt;&amp;lt;Group Desc&amp;gt;&lt;/font&gt;" style="text;html=1;strokeColor=none;fillColor=none;align=center;verticalAlign=middle;whiteSpace=wrap;rounded=0;" parent="1" vertex="1">
          <mxGeometry x="813.13" y="511.1" width="175" height="30" as="geometry" />
        </mxCell>
        <mxCell id="spJXYD7yS6-pVbVan2_o-140" value="Leave Group" style="rounded=1;whiteSpace=wrap;html=1;fillColor=#f8cecc;strokeColor=#b85450;" parent="1" vertex="1">
          <mxGeometry x="830.63" y="715" width="140" height="15" as="geometry" />
        </mxCell>
        <mxCell id="spJXYD7yS6-pVbVan2_o-141" value="Delete Group" style="rounded=1;whiteSpace=wrap;html=1;fillColor=#f8cecc;strokeColor=#b85450;" parent="1" vertex="1">
          <mxGeometry x="650" y="715" width="140" height="15" as="geometry" />
        </mxCell>
        <mxCell id="spJXYD7yS6-pVbVan2_o-149" value="Member 1" style="rounded=1;whiteSpace=wrap;html=1;" parent="1" vertex="1">
          <mxGeometry x="649.25" y="585" width="126.5" height="30" as="geometry" />
        </mxCell>
        <mxCell id="spJXYD7yS6-pVbVan2_o-150" value="Member 1" style="rounded=1;whiteSpace=wrap;html=1;" parent="1" vertex="1">
          <mxGeometry x="649.25" y="615" width="126.5" height="30" as="geometry" />
        </mxCell>
        <mxCell id="spJXYD7yS6-pVbVan2_o-151" value="Member 1" style="rounded=1;whiteSpace=wrap;html=1;" parent="1" vertex="1">
          <mxGeometry x="649.25" y="645" width="126.5" height="30" as="geometry" />
        </mxCell>
        <mxCell id="spJXYD7yS6-pVbVan2_o-152" value="" style="endArrow=none;html=1;rounded=0;" parent="1" edge="1">
          <mxGeometry width="50" height="50" relative="1" as="geometry">
            <mxPoint x="785" y="580" as="sourcePoint" />
            <mxPoint x="786.75" y="705" as="targetPoint" />
          </mxGeometry>
        </mxCell>
        <mxCell id="spJXYD7yS6-pVbVan2_o-153" value="" style="rounded=1;whiteSpace=wrap;html=1;" parent="1" vertex="1">
          <mxGeometry x="783" y="605" width="5" height="20" as="geometry" />
        </mxCell>
        <mxCell id="spJXYD7yS6-pVbVan2_o-154" value="&lt;font style=&quot;font-size: 16px;&quot;&gt;Members&lt;/font&gt;" style="text;html=1;strokeColor=none;fillColor=none;align=center;verticalAlign=middle;whiteSpace=wrap;rounded=0;" parent="1" vertex="1">
          <mxGeometry x="675" y="555" width="90" height="30" as="geometry" />
        </mxCell>
        <mxCell id="spJXYD7yS6-pVbVan2_o-155" value="Member 1" style="rounded=1;whiteSpace=wrap;html=1;" parent="1" vertex="1">
          <mxGeometry x="649.25" y="675" width="126.5" height="30" as="geometry" />
        </mxCell>
        <mxCell id="spJXYD7yS6-pVbVan2_o-156" value="-" style="rounded=1;whiteSpace=wrap;html=1;" parent="1" vertex="1">
          <mxGeometry x="655" y="590" width="20" height="20" as="geometry" />
        </mxCell>
        <mxCell id="spJXYD7yS6-pVbVan2_o-157" value="-" style="rounded=1;whiteSpace=wrap;html=1;" parent="1" vertex="1">
          <mxGeometry x="655" y="620" width="20" height="20" as="geometry" />
        </mxCell>
        <mxCell id="spJXYD7yS6-pVbVan2_o-158" value="-" style="rounded=1;whiteSpace=wrap;html=1;" parent="1" vertex="1">
          <mxGeometry x="655" y="650" width="20" height="20" as="geometry" />
        </mxCell>
        <mxCell id="spJXYD7yS6-pVbVan2_o-159" value="-" style="rounded=1;whiteSpace=wrap;html=1;" parent="1" vertex="1">
          <mxGeometry x="653.75" y="680" width="20" height="20" as="geometry" />
        </mxCell>
        <mxCell id="spJXYD7yS6-pVbVan2_o-160" value="" style="rounded=1;whiteSpace=wrap;html=1;" parent="1" vertex="1">
          <mxGeometry x="587.01" y="558.2" width="20" height="20" as="geometry" />
        </mxCell>
        <mxCell id="spJXYD7yS6-pVbVan2_o-161" value="&lt;i&gt;Group Name&lt;/i&gt;" style="rounded=1;whiteSpace=wrap;html=1;" parent="1" vertex="1">
          <mxGeometry x="649.25" y="510" width="140" height="20" as="geometry" />
        </mxCell>
        <mxCell id="spJXYD7yS6-pVbVan2_o-162" value="&lt;i&gt;Group Description&lt;/i&gt;" style="rounded=1;whiteSpace=wrap;html=1;" parent="1" vertex="1">
          <mxGeometry x="649.25" y="535" width="140" height="20" as="geometry" />
        </mxCell>
        <mxCell id="spJXYD7yS6-pVbVan2_o-163" value="X" style="ellipse;whiteSpace=wrap;html=1;aspect=fixed;" parent="1" vertex="1">
          <mxGeometry x="765.5" y="476.5" width="27.5" height="27.5" as="geometry" />
        </mxCell>
        <mxCell id="spJXYD7yS6-pVbVan2_o-166" value="&lt;font style=&quot;font-size: 16px;&quot;&gt;Add Expense&lt;/font&gt;" style="text;html=1;strokeColor=none;fillColor=none;align=center;verticalAlign=middle;whiteSpace=wrap;rounded=0;" parent="1" vertex="1">
          <mxGeometry x="486.13" y="472.5" width="104.75" height="30" as="geometry" />
        </mxCell>
        <mxCell id="spJXYD7yS6-pVbVan2_o-167" value="&lt;font style=&quot;font-size: 16px;&quot;&gt;Invoices&lt;/font&gt;" style="text;html=1;strokeColor=none;fillColor=none;align=center;verticalAlign=middle;whiteSpace=wrap;rounded=0;" parent="1" vertex="1">
          <mxGeometry x="307.63" y="476.5" width="104.75" height="30" as="geometry" />
        </mxCell>
        <mxCell id="spJXYD7yS6-pVbVan2_o-168" value="Invoice 1" style="rounded=1;whiteSpace=wrap;html=1;" parent="1" vertex="1">
          <mxGeometry x="291.25" y="511.5" width="126.5" height="30" as="geometry" />
        </mxCell>
        <mxCell id="spJXYD7yS6-pVbVan2_o-169" value="Invoice 1" style="rounded=1;whiteSpace=wrap;html=1;" parent="1" vertex="1">
          <mxGeometry x="291.25" y="541.5" width="126.5" height="30" as="geometry" />
        </mxCell>
        <mxCell id="spJXYD7yS6-pVbVan2_o-170" value="Invoice 1" style="rounded=1;whiteSpace=wrap;html=1;" parent="1" vertex="1">
          <mxGeometry x="291.25" y="571.5" width="126.5" height="30" as="geometry" />
        </mxCell>
        <mxCell id="spJXYD7yS6-pVbVan2_o-171" value="Invoice 1" style="rounded=1;whiteSpace=wrap;html=1;" parent="1" vertex="1">
          <mxGeometry x="291.25" y="601.5" width="126.5" height="30" as="geometry" />
        </mxCell>
        <mxCell id="spJXYD7yS6-pVbVan2_o-172" value="Invoice 1" style="rounded=1;whiteSpace=wrap;html=1;" parent="1" vertex="1">
          <mxGeometry x="291.25" y="631.5" width="126.5" height="30" as="geometry" />
        </mxCell>
        <mxCell id="spJXYD7yS6-pVbVan2_o-173" value="" style="endArrow=none;html=1;rounded=0;" parent="1" edge="1">
          <mxGeometry width="50" height="50" relative="1" as="geometry">
            <mxPoint x="427" y="506.5" as="sourcePoint" />
            <mxPoint x="427" y="691.5" as="targetPoint" />
          </mxGeometry>
        </mxCell>
        <mxCell id="spJXYD7yS6-pVbVan2_o-174" value="" style="rounded=1;whiteSpace=wrap;html=1;" parent="1" vertex="1">
          <mxGeometry x="425" y="531.5" width="5" height="20" as="geometry" />
        </mxCell>
        <mxCell id="spJXYD7yS6-pVbVan2_o-175" value="Invoice 1" style="rounded=1;whiteSpace=wrap;html=1;" parent="1" vertex="1">
          <mxGeometry x="290.75" y="661.5" width="126.5" height="30" as="geometry" />
        </mxCell>
        <mxCell id="spJXYD7yS6-pVbVan2_o-176" value="Back" style="rounded=1;whiteSpace=wrap;html=1;" parent="1" vertex="1">
          <mxGeometry x="332.62" y="701.5" width="56.25" height="30" as="geometry" />
        </mxCell>
        <mxCell id="spJXYD7yS6-pVbVan2_o-177" value="Add Attachment" style="rounded=1;whiteSpace=wrap;html=1;" parent="1" vertex="1">
          <mxGeometry x="476.75" y="665" width="126.5" height="30" as="geometry" />
        </mxCell>
        <mxCell id="spJXYD7yS6-pVbVan2_o-179" value="Member 1" style="rounded=1;whiteSpace=wrap;html=1;" parent="1" vertex="1">
          <mxGeometry x="471.25" y="595" width="126.5" height="30" as="geometry" />
        </mxCell>
        <mxCell id="spJXYD7yS6-pVbVan2_o-180" value="Member 1" style="rounded=1;whiteSpace=wrap;html=1;" parent="1" vertex="1">
          <mxGeometry x="471.25" y="625" width="126.5" height="30" as="geometry" />
        </mxCell>
        <mxCell id="spJXYD7yS6-pVbVan2_o-183" value="" style="endArrow=none;html=1;rounded=0;" parent="1" edge="1">
          <mxGeometry width="50" height="50" relative="1" as="geometry">
            <mxPoint x="607.5" y="600" as="sourcePoint" />
            <mxPoint x="607.5" y="650" as="targetPoint" />
          </mxGeometry>
        </mxCell>
        <mxCell id="spJXYD7yS6-pVbVan2_o-184" value="" style="rounded=1;whiteSpace=wrap;html=1;" parent="1" vertex="1">
          <mxGeometry x="605" y="615" width="5" height="20" as="geometry" />
        </mxCell>
        <mxCell id="spJXYD7yS6-pVbVan2_o-185" value="&lt;i&gt;Amount&lt;/i&gt;" style="rounded=1;whiteSpace=wrap;html=1;" parent="1" vertex="1">
          <mxGeometry x="470" y="530" width="140" height="20" as="geometry" />
        </mxCell>
        <mxCell id="spJXYD7yS6-pVbVan2_o-187" value="&lt;font style=&quot;font-size: 12px;&quot;&gt;All in group&lt;/font&gt;" style="text;html=1;strokeColor=none;fillColor=none;align=center;verticalAlign=middle;whiteSpace=wrap;rounded=0;" parent="1" vertex="1">
          <mxGeometry x="467.5" y="553.2" width="72.25" height="30" as="geometry" />
        </mxCell>
        <mxCell id="spJXYD7yS6-pVbVan2_o-190" value="Confirm" style="rounded=1;whiteSpace=wrap;html=1;" parent="1" vertex="1">
          <mxGeometry x="538.51" y="702.5" width="72.5" height="30" as="geometry" />
        </mxCell>
        <mxCell id="spJXYD7yS6-pVbVan2_o-191" value="Cancel" style="rounded=1;whiteSpace=wrap;html=1;" parent="1" vertex="1">
          <mxGeometry x="466.01" y="702.5" width="72.5" height="30" as="geometry" />
        </mxCell>
        <mxCell id="spJXYD7yS6-pVbVan2_o-192" value="" style="sketch=0;pointerEvents=1;shadow=0;dashed=0;html=1;strokeColor=none;fillColor=#505050;labelPosition=center;verticalLabelPosition=bottom;verticalAlign=top;outlineConnect=0;align=center;shape=mxgraph.office.concepts.attachment;" parent="1" vertex="1">
          <mxGeometry x="585" y="670.5" width="15" height="19" as="geometry" />
        </mxCell>
        <mxCell id="spJXYD7yS6-pVbVan2_o-193" value="" style="rounded=1;whiteSpace=wrap;html=1;" parent="1" vertex="1">
          <mxGeometry x="573.75" y="630" width="20" height="20" as="geometry" />
        </mxCell>
        <mxCell id="spJXYD7yS6-pVbVan2_o-194" value="" style="verticalLabelPosition=bottom;verticalAlign=top;html=1;shape=mxgraph.basic.tick" parent="1" vertex="1">
          <mxGeometry x="580.25" y="630" width="12.25" height="16" as="geometry" />
        </mxCell>
        <mxCell id="spJXYD7yS6-pVbVan2_o-195" value="&lt;font style=&quot;font-size: 12px;&quot;&gt;Specific Members&lt;/font&gt;" style="text;html=1;strokeColor=none;fillColor=none;align=center;verticalAlign=middle;whiteSpace=wrap;rounded=0;" parent="1" vertex="1">
          <mxGeometry x="462.12" y="570" width="111.63" height="30" as="geometry" />
        </mxCell>
        <mxCell id="spJXYD7yS6-pVbVan2_o-196" value="&lt;i&gt;User&lt;/i&gt;" style="rounded=1;whiteSpace=wrap;html=1;" parent="1" vertex="1">
          <mxGeometry x="470" y="509.70000000000005" width="140" height="20" as="geometry" />
        </mxCell>
        <mxCell id="spJXYD7yS6-pVbVan2_o-197" value="" style="rounded=1;whiteSpace=wrap;html=1;" parent="1" vertex="1">
          <mxGeometry x="573.75" y="600" width="20" height="20" as="geometry" />
        </mxCell>
        <mxCell id="spJXYD7yS6-pVbVan2_o-199" value="&lt;font style=&quot;font-size: 12px;&quot;&gt;&amp;lt;Camera&amp;gt;&lt;/font&gt;" style="text;html=1;strokeColor=none;fillColor=none;align=center;verticalAlign=middle;whiteSpace=wrap;rounded=0;" parent="1" vertex="1">
          <mxGeometry x="-87.5" y="930" width="175" height="30" as="geometry" />
        </mxCell>
        <mxCell id="spJXYD7yS6-pVbVan2_o-200" value="Confirm" style="rounded=1;whiteSpace=wrap;html=1;" parent="1" vertex="1">
          <mxGeometry x="1" y="1040" width="72.5" height="30" as="geometry" />
        </mxCell>
        <mxCell id="spJXYD7yS6-pVbVan2_o-201" value="Cancel" style="rounded=1;whiteSpace=wrap;html=1;" parent="1" vertex="1">
          <mxGeometry x="-71.5" y="1040" width="72.5" height="30" as="geometry" />
        </mxCell>
        <mxCell id="spJXYD7yS6-pVbVan2_o-202" value="Retake" style="rounded=1;whiteSpace=wrap;html=1;" parent="1" vertex="1">
          <mxGeometry x="-36.25" y="1010" width="72.5" height="30" as="geometry" />
        </mxCell>
        <mxCell id="k--4-FOAuJHvPxpocm_6-1" value="Invoices" style="rounded=1;whiteSpace=wrap;html=1;" parent="1" vertex="1">
          <mxGeometry x="128.75" y="585" width="102.5" height="30" as="geometry" />
        </mxCell>
        <mxCell id="Rcb3b1_ldlfBVA7jYf9X-1" value="Add Expense" style="rounded=1;whiteSpace=wrap;html=1;" vertex="1" parent="1">
          <mxGeometry x="1" y="710" width="59" height="25" as="geometry" />
        </mxCell>
      </root>
    </mxGraphModel>
  </diagram>
</mxfile>
